<mxfile host="www.draw.io" modified="2019-11-30T15:09:28.813Z" agent="Mozilla/5.0 (Macintosh; Intel Mac OS X 10_14_6) AppleWebKit/537.36 (KHTML, like Gecko) Chrome/78.0.3904.97 Safari/537.36" etag="A3Qc-g3CRTKUgNQ7iLW6" version="12.3.3" type="github" pages="1">
  <diagram id="iFBTR7gXfTiIHQD0XVNO" name="Page-1">
    <mxGraphModel dx="1243" dy="683" grid="1" gridSize="10" guides="1" tooltips="1" connect="1" arrows="1" fold="1" page="1" pageScale="1" pageWidth="827" pageHeight="1169" math="0" shadow="0">
      <root>
        <mxCell id="0"/>
        <mxCell id="1" parent="0"/>
        <mxCell id="z2BmbQ6l0MY7L84lB-eh-4" value="Questions" style="swimlane;fontStyle=0;childLayout=stackLayout;horizontal=1;startSize=26;fillColor=#fff2cc;horizontalStack=0;resizeParent=1;resizeParentMax=0;resizeLast=0;collapsible=1;marginBottom=0;strokeColor=#d6b656;" parent="1" vertex="1">
          <mxGeometry x="436" y="351" width="143" height="130" as="geometry"/>
        </mxCell>
        <mxCell id="z2BmbQ6l0MY7L84lB-eh-5" value="+ qstID" style="text;strokeColor=none;fillColor=none;align=left;verticalAlign=top;spacingLeft=4;spacingRight=4;overflow=hidden;rotatable=0;points=[[0,0.5],[1,0.5]];portConstraint=eastwest;" parent="z2BmbQ6l0MY7L84lB-eh-4" vertex="1">
          <mxGeometry y="26" width="143" height="26" as="geometry"/>
        </mxCell>
        <mxCell id="z2BmbQ6l0MY7L84lB-eh-6" value="numInQstnr" style="text;strokeColor=none;fillColor=none;align=left;verticalAlign=top;spacingLeft=4;spacingRight=4;overflow=hidden;rotatable=0;points=[[0,0.5],[1,0.5]];portConstraint=eastwest;" parent="z2BmbQ6l0MY7L84lB-eh-4" vertex="1">
          <mxGeometry y="52" width="143" height="26" as="geometry"/>
        </mxCell>
        <mxCell id="z2BmbQ6l0MY7L84lB-eh-7" value="qstnrID" style="text;strokeColor=none;fillColor=none;align=left;verticalAlign=top;spacingLeft=4;spacingRight=4;overflow=hidden;rotatable=0;points=[[0,0.5],[1,0.5]];portConstraint=eastwest;" parent="z2BmbQ6l0MY7L84lB-eh-4" vertex="1">
          <mxGeometry y="78" width="143" height="26" as="geometry"/>
        </mxCell>
        <mxCell id="z2BmbQ6l0MY7L84lB-eh-54" value="qstTextID" style="text;strokeColor=none;fillColor=none;align=left;verticalAlign=top;spacingLeft=4;spacingRight=4;overflow=hidden;rotatable=0;points=[[0,0.5],[1,0.5]];portConstraint=eastwest;" parent="z2BmbQ6l0MY7L84lB-eh-4" vertex="1">
          <mxGeometry y="104" width="143" height="26" as="geometry"/>
        </mxCell>
        <mxCell id="z2BmbQ6l0MY7L84lB-eh-8" value="Questionnaires" style="swimlane;fontStyle=0;childLayout=stackLayout;horizontal=1;startSize=26;fillColor=#fff2cc;horizontalStack=0;resizeParent=1;resizeParentMax=0;resizeLast=0;collapsible=1;marginBottom=0;strokeColor=#d6b656;" parent="1" vertex="1">
          <mxGeometry x="666" y="391" width="140" height="104" as="geometry"/>
        </mxCell>
        <mxCell id="z2BmbQ6l0MY7L84lB-eh-9" value="+ qstnrID" style="text;strokeColor=none;fillColor=none;align=left;verticalAlign=top;spacingLeft=4;spacingRight=4;overflow=hidden;rotatable=0;points=[[0,0.5],[1,0.5]];portConstraint=eastwest;" parent="z2BmbQ6l0MY7L84lB-eh-8" vertex="1">
          <mxGeometry y="26" width="140" height="26" as="geometry"/>
        </mxCell>
        <mxCell id="z2BmbQ6l0MY7L84lB-eh-10" value="qstnrNickName" style="text;strokeColor=none;fillColor=none;align=left;verticalAlign=top;spacingLeft=4;spacingRight=4;overflow=hidden;rotatable=0;points=[[0,0.5],[1,0.5]];portConstraint=eastwest;" parent="z2BmbQ6l0MY7L84lB-eh-8" vertex="1">
          <mxGeometry y="52" width="140" height="26" as="geometry"/>
        </mxCell>
        <mxCell id="z2BmbQ6l0MY7L84lB-eh-11" value="qstnrName" style="text;strokeColor=none;fillColor=none;align=left;verticalAlign=top;spacingLeft=4;spacingRight=4;overflow=hidden;rotatable=0;points=[[0,0.5],[1,0.5]];portConstraint=eastwest;" parent="z2BmbQ6l0MY7L84lB-eh-8" vertex="1">
          <mxGeometry y="78" width="140" height="26" as="geometry"/>
        </mxCell>
        <mxCell id="z2BmbQ6l0MY7L84lB-eh-12" value="Respondents" style="swimlane;fontStyle=0;childLayout=stackLayout;horizontal=1;startSize=26;fillColor=#dae8fc;horizontalStack=0;resizeParent=1;resizeParentMax=0;resizeLast=0;collapsible=1;marginBottom=0;strokeColor=#6c8ebf;" parent="1" vertex="1">
          <mxGeometry x="436" y="20" width="140" height="208" as="geometry"/>
        </mxCell>
        <mxCell id="z2BmbQ6l0MY7L84lB-eh-13" value="+ id" style="text;strokeColor=none;fillColor=none;align=left;verticalAlign=top;spacingLeft=4;spacingRight=4;overflow=hidden;rotatable=0;points=[[0,0.5],[1,0.5]];portConstraint=eastwest;" parent="z2BmbQ6l0MY7L84lB-eh-12" vertex="1">
          <mxGeometry y="26" width="140" height="26" as="geometry"/>
        </mxCell>
        <mxCell id="z2BmbQ6l0MY7L84lB-eh-14" value="birthdayÂ " style="text;strokeColor=none;fillColor=none;align=left;verticalAlign=top;spacingLeft=4;spacingRight=4;overflow=hidden;rotatable=0;points=[[0,0.5],[1,0.5]];portConstraint=eastwest;" parent="z2BmbQ6l0MY7L84lB-eh-12" vertex="1">
          <mxGeometry y="52" width="140" height="26" as="geometry"/>
        </mxCell>
        <mxCell id="z2BmbQ6l0MY7L84lB-eh-15" value="pname" style="text;strokeColor=none;fillColor=none;align=left;verticalAlign=top;spacingLeft=4;spacingRight=4;overflow=hidden;rotatable=0;points=[[0,0.5],[1,0.5]];portConstraint=eastwest;" parent="z2BmbQ6l0MY7L84lB-eh-12" vertex="1">
          <mxGeometry y="78" width="140" height="26" as="geometry"/>
        </mxCell>
        <mxCell id="z2BmbQ6l0MY7L84lB-eh-16" value="psurname" style="text;strokeColor=none;fillColor=none;align=left;verticalAlign=top;spacingLeft=4;spacingRight=4;overflow=hidden;rotatable=0;points=[[0,0.5],[1,0.5]];portConstraint=eastwest;" parent="z2BmbQ6l0MY7L84lB-eh-12" vertex="1">
          <mxGeometry y="104" width="140" height="26" as="geometry"/>
        </mxCell>
        <mxCell id="z2BmbQ6l0MY7L84lB-eh-17" value="pfathername" style="text;strokeColor=none;fillColor=none;align=left;verticalAlign=top;spacingLeft=4;spacingRight=4;overflow=hidden;rotatable=0;points=[[0,0.5],[1,0.5]];portConstraint=eastwest;" parent="z2BmbQ6l0MY7L84lB-eh-12" vertex="1">
          <mxGeometry y="130" width="140" height="26" as="geometry"/>
        </mxCell>
        <mxCell id="z2BmbQ6l0MY7L84lB-eh-18" value="idposition" style="text;strokeColor=none;fillColor=none;align=left;verticalAlign=top;spacingLeft=4;spacingRight=4;overflow=hidden;rotatable=0;points=[[0,0.5],[1,0.5]];portConstraint=eastwest;" parent="z2BmbQ6l0MY7L84lB-eh-12" vertex="1">
          <mxGeometry y="156" width="140" height="26" as="geometry"/>
        </mxCell>
        <mxCell id="yYKGKoS039EIgSRdd9-Q-1" value="sex" style="text;strokeColor=none;fillColor=none;align=left;verticalAlign=top;spacingLeft=4;spacingRight=4;overflow=hidden;rotatable=0;points=[[0,0.5],[1,0.5]];portConstraint=eastwest;" vertex="1" parent="z2BmbQ6l0MY7L84lB-eh-12">
          <mxGeometry y="182" width="140" height="26" as="geometry"/>
        </mxCell>
        <mxCell id="z2BmbQ6l0MY7L84lB-eh-19" value="Results" style="swimlane;fontStyle=0;childLayout=stackLayout;horizontal=1;startSize=26;fillColor=#dae8fc;horizontalStack=0;resizeParent=1;resizeParentMax=0;resizeLast=0;collapsible=1;marginBottom=0;strokeColor=#6c8ebf;" parent="1" vertex="1">
          <mxGeometry x="220" y="20" width="140" height="156" as="geometry"/>
        </mxCell>
        <mxCell id="z2BmbQ6l0MY7L84lB-eh-20" value="+ resID" style="text;strokeColor=none;fillColor=none;align=left;verticalAlign=top;spacingLeft=4;spacingRight=4;overflow=hidden;rotatable=0;points=[[0,0.5],[1,0.5]];portConstraint=eastwest;" parent="z2BmbQ6l0MY7L84lB-eh-19" vertex="1">
          <mxGeometry y="26" width="140" height="26" as="geometry"/>
        </mxCell>
        <mxCell id="z2BmbQ6l0MY7L84lB-eh-21" value="personID" style="text;strokeColor=none;fillColor=none;align=left;verticalAlign=top;spacingLeft=4;spacingRight=4;overflow=hidden;rotatable=0;points=[[0,0.5],[1,0.5]];portConstraint=eastwest;" parent="z2BmbQ6l0MY7L84lB-eh-19" vertex="1">
          <mxGeometry y="52" width="140" height="26" as="geometry"/>
        </mxCell>
        <mxCell id="z2BmbQ6l0MY7L84lB-eh-22" value="scaleID" style="text;strokeColor=none;fillColor=none;align=left;verticalAlign=top;spacingLeft=4;spacingRight=4;overflow=hidden;rotatable=0;points=[[0,0.5],[1,0.5]];portConstraint=eastwest;" parent="z2BmbQ6l0MY7L84lB-eh-19" vertex="1">
          <mxGeometry y="78" width="140" height="26" as="geometry"/>
        </mxCell>
        <mxCell id="z2BmbQ6l0MY7L84lB-eh-23" value="rawScore" style="text;strokeColor=none;fillColor=none;align=left;verticalAlign=top;spacingLeft=4;spacingRight=4;overflow=hidden;rotatable=0;points=[[0,0.5],[1,0.5]];portConstraint=eastwest;" parent="z2BmbQ6l0MY7L84lB-eh-19" vertex="1">
          <mxGeometry y="104" width="140" height="26" as="geometry"/>
        </mxCell>
        <mxCell id="z2BmbQ6l0MY7L84lB-eh-24" value="resScore" style="text;strokeColor=none;fillColor=none;align=left;verticalAlign=top;spacingLeft=4;spacingRight=4;overflow=hidden;rotatable=0;points=[[0,0.5],[1,0.5]];portConstraint=eastwest;" parent="z2BmbQ6l0MY7L84lB-eh-19" vertex="1">
          <mxGeometry y="130" width="140" height="26" as="geometry"/>
        </mxCell>
        <mxCell id="z2BmbQ6l0MY7L84lB-eh-26" value="RespSelections" style="swimlane;fontStyle=0;childLayout=stackLayout;horizontal=1;startSize=26;fillColor=#dae8fc;horizontalStack=0;resizeParent=1;resizeParentMax=0;resizeLast=0;collapsible=1;marginBottom=0;strokeColor=#6c8ebf;" parent="1" vertex="1">
          <mxGeometry x="650" y="20" width="140" height="104" as="geometry"/>
        </mxCell>
        <mxCell id="z2BmbQ6l0MY7L84lB-eh-27" value="+ selectionID" style="text;strokeColor=none;fillColor=none;align=left;verticalAlign=top;spacingLeft=4;spacingRight=4;overflow=hidden;rotatable=0;points=[[0,0.5],[1,0.5]];portConstraint=eastwest;" parent="z2BmbQ6l0MY7L84lB-eh-26" vertex="1">
          <mxGeometry y="26" width="140" height="26" as="geometry"/>
        </mxCell>
        <mxCell id="z2BmbQ6l0MY7L84lB-eh-28" value="personID" style="text;strokeColor=none;fillColor=none;align=left;verticalAlign=top;spacingLeft=4;spacingRight=4;overflow=hidden;rotatable=0;points=[[0,0.5],[1,0.5]];portConstraint=eastwest;" parent="z2BmbQ6l0MY7L84lB-eh-26" vertex="1">
          <mxGeometry y="52" width="140" height="26" as="geometry"/>
        </mxCell>
        <mxCell id="z2BmbQ6l0MY7L84lB-eh-29" value="ansID" style="text;strokeColor=none;fillColor=none;align=left;verticalAlign=top;spacingLeft=4;spacingRight=4;overflow=hidden;rotatable=0;points=[[0,0.5],[1,0.5]];portConstraint=eastwest;" parent="z2BmbQ6l0MY7L84lB-eh-26" vertex="1">
          <mxGeometry y="78" width="140" height="26" as="geometry"/>
        </mxCell>
        <mxCell id="z2BmbQ6l0MY7L84lB-eh-32" value="Answers" style="swimlane;fontStyle=0;childLayout=stackLayout;horizontal=1;startSize=26;fillColor=#fff2cc;horizontalStack=0;resizeParent=1;resizeParentMax=0;resizeLast=0;collapsible=1;marginBottom=0;strokeColor=#d6b656;" parent="1" vertex="1">
          <mxGeometry x="666" y="211" width="140" height="156" as="geometry"/>
        </mxCell>
        <mxCell id="z2BmbQ6l0MY7L84lB-eh-33" value="+ ansID" style="text;strokeColor=none;fillColor=none;align=left;verticalAlign=top;spacingLeft=4;spacingRight=4;overflow=hidden;rotatable=0;points=[[0,0.5],[1,0.5]];portConstraint=eastwest;" parent="z2BmbQ6l0MY7L84lB-eh-32" vertex="1">
          <mxGeometry y="26" width="140" height="26" as="geometry"/>
        </mxCell>
        <mxCell id="z2BmbQ6l0MY7L84lB-eh-36" value="ansTextID" style="text;strokeColor=none;fillColor=none;align=left;verticalAlign=top;spacingLeft=4;spacingRight=4;overflow=hidden;rotatable=0;points=[[0,0.5],[1,0.5]];portConstraint=eastwest;" parent="z2BmbQ6l0MY7L84lB-eh-32" vertex="1">
          <mxGeometry y="52" width="140" height="26" as="geometry"/>
        </mxCell>
        <mxCell id="z2BmbQ6l0MY7L84lB-eh-35" value="qstID" style="text;strokeColor=none;fillColor=none;align=left;verticalAlign=top;spacingLeft=4;spacingRight=4;overflow=hidden;rotatable=0;points=[[0,0.5],[1,0.5]];portConstraint=eastwest;" parent="z2BmbQ6l0MY7L84lB-eh-32" vertex="1">
          <mxGeometry y="78" width="140" height="26" as="geometry"/>
        </mxCell>
        <mxCell id="z2BmbQ6l0MY7L84lB-eh-37" value="numInQst" style="text;strokeColor=none;fillColor=none;align=left;verticalAlign=top;spacingLeft=4;spacingRight=4;overflow=hidden;rotatable=0;points=[[0,0.5],[1,0.5]];portConstraint=eastwest;" parent="z2BmbQ6l0MY7L84lB-eh-32" vertex="1">
          <mxGeometry y="104" width="140" height="26" as="geometry"/>
        </mxCell>
        <mxCell id="z2BmbQ6l0MY7L84lB-eh-38" value="score" style="text;strokeColor=none;fillColor=none;align=left;verticalAlign=top;spacingLeft=4;spacingRight=4;overflow=hidden;rotatable=0;points=[[0,0.5],[1,0.5]];portConstraint=eastwest;" parent="z2BmbQ6l0MY7L84lB-eh-32" vertex="1">
          <mxGeometry y="130" width="140" height="26" as="geometry"/>
        </mxCell>
        <mxCell id="z2BmbQ6l0MY7L84lB-eh-39" value="AnswerTexts" style="swimlane;fontStyle=0;childLayout=stackLayout;horizontal=1;startSize=26;fillColor=#fff2cc;horizontalStack=0;resizeParent=1;resizeParentMax=0;resizeLast=0;collapsible=1;marginBottom=0;strokeColor=#d6b656;" parent="1" vertex="1">
          <mxGeometry x="436" y="245" width="140" height="78" as="geometry"/>
        </mxCell>
        <mxCell id="z2BmbQ6l0MY7L84lB-eh-40" value="+ ansTextID" style="text;strokeColor=none;fillColor=none;align=left;verticalAlign=top;spacingLeft=4;spacingRight=4;overflow=hidden;rotatable=0;points=[[0,0.5],[1,0.5]];portConstraint=eastwest;" parent="z2BmbQ6l0MY7L84lB-eh-39" vertex="1">
          <mxGeometry y="26" width="140" height="26" as="geometry"/>
        </mxCell>
        <mxCell id="z2BmbQ6l0MY7L84lB-eh-41" value="ansText" style="text;strokeColor=none;fillColor=none;align=left;verticalAlign=top;spacingLeft=4;spacingRight=4;overflow=hidden;rotatable=0;points=[[0,0.5],[1,0.5]];portConstraint=eastwest;" parent="z2BmbQ6l0MY7L84lB-eh-39" vertex="1">
          <mxGeometry y="52" width="140" height="26" as="geometry"/>
        </mxCell>
        <mxCell id="z2BmbQ6l0MY7L84lB-eh-49" style="edgeStyle=orthogonalEdgeStyle;rounded=0;orthogonalLoop=1;jettySize=auto;html=1;" parent="1" source="z2BmbQ6l0MY7L84lB-eh-13" target="z2BmbQ6l0MY7L84lB-eh-28" edge="1">
          <mxGeometry relative="1" as="geometry"/>
        </mxCell>
        <mxCell id="z2BmbQ6l0MY7L84lB-eh-50" style="edgeStyle=orthogonalEdgeStyle;rounded=0;orthogonalLoop=1;jettySize=auto;html=1;" parent="1" source="z2BmbQ6l0MY7L84lB-eh-13" target="z2BmbQ6l0MY7L84lB-eh-21" edge="1">
          <mxGeometry relative="1" as="geometry"/>
        </mxCell>
        <mxCell id="z2BmbQ6l0MY7L84lB-eh-52" style="edgeStyle=orthogonalEdgeStyle;rounded=0;orthogonalLoop=1;jettySize=auto;html=1;" parent="1" source="z2BmbQ6l0MY7L84lB-eh-33" target="z2BmbQ6l0MY7L84lB-eh-29" edge="1">
          <mxGeometry relative="1" as="geometry"/>
        </mxCell>
        <mxCell id="z2BmbQ6l0MY7L84lB-eh-53" style="edgeStyle=orthogonalEdgeStyle;rounded=0;orthogonalLoop=1;jettySize=auto;html=1;" parent="1" source="z2BmbQ6l0MY7L84lB-eh-40" target="z2BmbQ6l0MY7L84lB-eh-36" edge="1">
          <mxGeometry relative="1" as="geometry"/>
        </mxCell>
        <mxCell id="yYKGKoS039EIgSRdd9-Q-2" value="QstTexts" style="swimlane;fontStyle=0;childLayout=stackLayout;horizontal=1;startSize=26;fillColor=#fff2cc;horizontalStack=0;resizeParent=1;resizeParentMax=0;resizeLast=0;collapsible=1;marginBottom=0;strokeColor=#d6b656;" vertex="1" parent="1">
          <mxGeometry x="666" y="516.5" width="140" height="78" as="geometry"/>
        </mxCell>
        <mxCell id="yYKGKoS039EIgSRdd9-Q-3" value="+ qstTextID" style="text;strokeColor=none;fillColor=none;align=left;verticalAlign=top;spacingLeft=4;spacingRight=4;overflow=hidden;rotatable=0;points=[[0,0.5],[1,0.5]];portConstraint=eastwest;" vertex="1" parent="yYKGKoS039EIgSRdd9-Q-2">
          <mxGeometry y="26" width="140" height="26" as="geometry"/>
        </mxCell>
        <mxCell id="yYKGKoS039EIgSRdd9-Q-4" value="qstText" style="text;strokeColor=none;fillColor=none;align=left;verticalAlign=top;spacingLeft=4;spacingRight=4;overflow=hidden;rotatable=0;points=[[0,0.5],[1,0.5]];portConstraint=eastwest;" vertex="1" parent="yYKGKoS039EIgSRdd9-Q-2">
          <mxGeometry y="52" width="140" height="26" as="geometry"/>
        </mxCell>
        <mxCell id="yYKGKoS039EIgSRdd9-Q-12" style="edgeStyle=orthogonalEdgeStyle;rounded=0;orthogonalLoop=1;jettySize=auto;html=1;" edge="1" parent="1" source="yYKGKoS039EIgSRdd9-Q-3" target="z2BmbQ6l0MY7L84lB-eh-54">
          <mxGeometry relative="1" as="geometry"/>
        </mxCell>
        <mxCell id="yYKGKoS039EIgSRdd9-Q-13" style="edgeStyle=orthogonalEdgeStyle;rounded=0;orthogonalLoop=1;jettySize=auto;html=1;" edge="1" parent="1" source="z2BmbQ6l0MY7L84lB-eh-5" target="z2BmbQ6l0MY7L84lB-eh-35">
          <mxGeometry relative="1" as="geometry"/>
        </mxCell>
        <mxCell id="yYKGKoS039EIgSRdd9-Q-14" style="edgeStyle=orthogonalEdgeStyle;rounded=0;orthogonalLoop=1;jettySize=auto;html=1;" edge="1" parent="1" source="z2BmbQ6l0MY7L84lB-eh-9" target="z2BmbQ6l0MY7L84lB-eh-7">
          <mxGeometry relative="1" as="geometry"/>
        </mxCell>
        <mxCell id="yYKGKoS039EIgSRdd9-Q-15" value="QstScales" style="swimlane;fontStyle=0;childLayout=stackLayout;horizontal=1;startSize=26;fillColor=#d5e8d4;horizontalStack=0;resizeParent=1;resizeParentMax=0;resizeLast=0;collapsible=1;marginBottom=0;strokeColor=#82b366;" vertex="1" parent="1">
          <mxGeometry x="220" y="299" width="140" height="104" as="geometry"/>
        </mxCell>
        <mxCell id="yYKGKoS039EIgSRdd9-Q-16" value="+ qstScaleID" style="text;strokeColor=none;fillColor=none;align=left;verticalAlign=top;spacingLeft=4;spacingRight=4;overflow=hidden;rotatable=0;points=[[0,0.5],[1,0.5]];portConstraint=eastwest;" vertex="1" parent="yYKGKoS039EIgSRdd9-Q-15">
          <mxGeometry y="26" width="140" height="26" as="geometry"/>
        </mxCell>
        <mxCell id="yYKGKoS039EIgSRdd9-Q-17" value="qstID" style="text;strokeColor=none;fillColor=none;align=left;verticalAlign=top;spacingLeft=4;spacingRight=4;overflow=hidden;rotatable=0;points=[[0,0.5],[1,0.5]];portConstraint=eastwest;" vertex="1" parent="yYKGKoS039EIgSRdd9-Q-15">
          <mxGeometry y="52" width="140" height="26" as="geometry"/>
        </mxCell>
        <mxCell id="yYKGKoS039EIgSRdd9-Q-18" value="scaleID" style="text;strokeColor=none;fillColor=none;align=left;verticalAlign=top;spacingLeft=4;spacingRight=4;overflow=hidden;rotatable=0;points=[[0,0.5],[1,0.5]];portConstraint=eastwest;" vertex="1" parent="yYKGKoS039EIgSRdd9-Q-15">
          <mxGeometry y="78" width="140" height="26" as="geometry"/>
        </mxCell>
        <mxCell id="yYKGKoS039EIgSRdd9-Q-19" value="Scales" style="swimlane;fontStyle=0;childLayout=stackLayout;horizontal=1;startSize=26;fillColor=#d5e8d4;horizontalStack=0;resizeParent=1;resizeParentMax=0;resizeLast=0;collapsible=1;marginBottom=0;strokeColor=#82b366;" vertex="1" parent="1">
          <mxGeometry x="30" y="261" width="140" height="104" as="geometry"/>
        </mxCell>
        <mxCell id="yYKGKoS039EIgSRdd9-Q-20" value="+ scaleID" style="text;strokeColor=none;fillColor=none;align=left;verticalAlign=top;spacingLeft=4;spacingRight=4;overflow=hidden;rotatable=0;points=[[0,0.5],[1,0.5]];portConstraint=eastwest;" vertex="1" parent="yYKGKoS039EIgSRdd9-Q-19">
          <mxGeometry y="26" width="140" height="26" as="geometry"/>
        </mxCell>
        <mxCell id="yYKGKoS039EIgSRdd9-Q-21" value="scaleName" style="text;strokeColor=none;fillColor=none;align=left;verticalAlign=top;spacingLeft=4;spacingRight=4;overflow=hidden;rotatable=0;points=[[0,0.5],[1,0.5]];portConstraint=eastwest;" vertex="1" parent="yYKGKoS039EIgSRdd9-Q-19">
          <mxGeometry y="52" width="140" height="26" as="geometry"/>
        </mxCell>
        <mxCell id="yYKGKoS039EIgSRdd9-Q-22" value="scaleNickName" style="text;strokeColor=none;fillColor=none;align=left;verticalAlign=top;spacingLeft=4;spacingRight=4;overflow=hidden;rotatable=0;points=[[0,0.5],[1,0.5]];portConstraint=eastwest;" vertex="1" parent="yYKGKoS039EIgSRdd9-Q-19">
          <mxGeometry y="78" width="140" height="26" as="geometry"/>
        </mxCell>
        <mxCell id="yYKGKoS039EIgSRdd9-Q-23" value="PartScales" style="swimlane;fontStyle=0;childLayout=stackLayout;horizontal=1;startSize=26;fillColor=#f8cecc;horizontalStack=0;resizeParent=1;resizeParentMax=0;resizeLast=0;collapsible=1;marginBottom=0;strokeColor=#b85450;" vertex="1" parent="1">
          <mxGeometry x="223" y="472" width="140" height="130" as="geometry"/>
        </mxCell>
        <mxCell id="yYKGKoS039EIgSRdd9-Q-24" value="+ partScaleID" style="text;strokeColor=none;fillColor=none;align=left;verticalAlign=top;spacingLeft=4;spacingRight=4;overflow=hidden;rotatable=0;points=[[0,0.5],[1,0.5]];portConstraint=eastwest;" vertex="1" parent="yYKGKoS039EIgSRdd9-Q-23">
          <mxGeometry y="26" width="140" height="26" as="geometry"/>
        </mxCell>
        <mxCell id="yYKGKoS039EIgSRdd9-Q-25" value="scaleID" style="text;strokeColor=none;fillColor=none;align=left;verticalAlign=top;spacingLeft=4;spacingRight=4;overflow=hidden;rotatable=0;points=[[0,0.5],[1,0.5]];portConstraint=eastwest;" vertex="1" parent="yYKGKoS039EIgSRdd9-Q-23">
          <mxGeometry y="52" width="140" height="26" as="geometry"/>
        </mxCell>
        <mxCell id="yYKGKoS039EIgSRdd9-Q-26" value="partScaleName" style="text;strokeColor=none;fillColor=none;align=left;verticalAlign=top;spacingLeft=4;spacingRight=4;overflow=hidden;rotatable=0;points=[[0,0.5],[1,0.5]];portConstraint=eastwest;" vertex="1" parent="yYKGKoS039EIgSRdd9-Q-23">
          <mxGeometry y="78" width="140" height="26" as="geometry"/>
        </mxCell>
        <mxCell id="yYKGKoS039EIgSRdd9-Q-27" value="intSetID" style="text;strokeColor=none;fillColor=none;align=left;verticalAlign=top;spacingLeft=4;spacingRight=4;overflow=hidden;rotatable=0;points=[[0,0.5],[1,0.5]];portConstraint=eastwest;" vertex="1" parent="yYKGKoS039EIgSRdd9-Q-23">
          <mxGeometry y="104" width="140" height="26" as="geometry"/>
        </mxCell>
        <mxCell id="yYKGKoS039EIgSRdd9-Q-28" style="edgeStyle=orthogonalEdgeStyle;rounded=0;orthogonalLoop=1;jettySize=auto;html=1;" edge="1" parent="1" source="z2BmbQ6l0MY7L84lB-eh-5" target="yYKGKoS039EIgSRdd9-Q-17">
          <mxGeometry relative="1" as="geometry"/>
        </mxCell>
        <mxCell id="yYKGKoS039EIgSRdd9-Q-29" style="edgeStyle=orthogonalEdgeStyle;rounded=0;orthogonalLoop=1;jettySize=auto;html=1;" edge="1" parent="1" source="yYKGKoS039EIgSRdd9-Q-20" target="yYKGKoS039EIgSRdd9-Q-18">
          <mxGeometry relative="1" as="geometry"/>
        </mxCell>
        <mxCell id="yYKGKoS039EIgSRdd9-Q-30" style="edgeStyle=orthogonalEdgeStyle;rounded=0;orthogonalLoop=1;jettySize=auto;html=1;" edge="1" parent="1" source="yYKGKoS039EIgSRdd9-Q-18" target="yYKGKoS039EIgSRdd9-Q-25">
          <mxGeometry relative="1" as="geometry"/>
        </mxCell>
        <mxCell id="yYKGKoS039EIgSRdd9-Q-31" value="IntervalSets" style="swimlane;fontStyle=0;childLayout=stackLayout;horizontal=1;startSize=26;fillColor=#e1d5e7;horizontalStack=0;resizeParent=1;resizeParentMax=0;resizeLast=0;collapsible=1;marginBottom=0;strokeColor=#9673a6;" vertex="1" parent="1">
          <mxGeometry x="20" y="561" width="140" height="130" as="geometry"/>
        </mxCell>
        <mxCell id="yYKGKoS039EIgSRdd9-Q-32" value="+ intSetID" style="text;strokeColor=none;fillColor=none;align=left;verticalAlign=top;spacingLeft=4;spacingRight=4;overflow=hidden;rotatable=0;points=[[0,0.5],[1,0.5]];portConstraint=eastwest;" vertex="1" parent="yYKGKoS039EIgSRdd9-Q-31">
          <mxGeometry y="26" width="140" height="26" as="geometry"/>
        </mxCell>
        <mxCell id="yYKGKoS039EIgSRdd9-Q-33" value="intSetNameID" style="text;strokeColor=none;fillColor=none;align=left;verticalAlign=top;spacingLeft=4;spacingRight=4;overflow=hidden;rotatable=0;points=[[0,0.5],[1,0.5]];portConstraint=eastwest;" vertex="1" parent="yYKGKoS039EIgSRdd9-Q-31">
          <mxGeometry y="52" width="140" height="26" as="geometry"/>
        </mxCell>
        <mxCell id="yYKGKoS039EIgSRdd9-Q-34" value="intervalNameID" style="text;strokeColor=none;fillColor=none;align=left;verticalAlign=top;spacingLeft=4;spacingRight=4;overflow=hidden;rotatable=0;points=[[0,0.5],[1,0.5]];portConstraint=eastwest;" vertex="1" parent="yYKGKoS039EIgSRdd9-Q-31">
          <mxGeometry y="78" width="140" height="26" as="geometry"/>
        </mxCell>
        <mxCell id="yYKGKoS039EIgSRdd9-Q-35" value="numInIntSet" style="text;strokeColor=none;fillColor=none;align=left;verticalAlign=top;spacingLeft=4;spacingRight=4;overflow=hidden;rotatable=0;points=[[0,0.5],[1,0.5]];portConstraint=eastwest;" vertex="1" parent="yYKGKoS039EIgSRdd9-Q-31">
          <mxGeometry y="104" width="140" height="26" as="geometry"/>
        </mxCell>
        <mxCell id="yYKGKoS039EIgSRdd9-Q-36" style="edgeStyle=orthogonalEdgeStyle;rounded=0;orthogonalLoop=1;jettySize=auto;html=1;" edge="1" parent="1" source="yYKGKoS039EIgSRdd9-Q-32" target="yYKGKoS039EIgSRdd9-Q-27">
          <mxGeometry relative="1" as="geometry"/>
        </mxCell>
        <mxCell id="yYKGKoS039EIgSRdd9-Q-37" value="IntSetNames" style="swimlane;fontStyle=0;childLayout=stackLayout;horizontal=1;startSize=26;fillColor=#e1d5e7;horizontalStack=0;resizeParent=1;resizeParentMax=0;resizeLast=0;collapsible=1;marginBottom=0;strokeColor=#9673a6;" vertex="1" parent="1">
          <mxGeometry x="220" y="717" width="140" height="78" as="geometry"/>
        </mxCell>
        <mxCell id="yYKGKoS039EIgSRdd9-Q-38" value="+ intSetNameID" style="text;strokeColor=none;fillColor=none;align=left;verticalAlign=top;spacingLeft=4;spacingRight=4;overflow=hidden;rotatable=0;points=[[0,0.5],[1,0.5]];portConstraint=eastwest;" vertex="1" parent="yYKGKoS039EIgSRdd9-Q-37">
          <mxGeometry y="26" width="140" height="26" as="geometry"/>
        </mxCell>
        <mxCell id="yYKGKoS039EIgSRdd9-Q-39" value="intSetName" style="text;strokeColor=none;fillColor=none;align=left;verticalAlign=top;spacingLeft=4;spacingRight=4;overflow=hidden;rotatable=0;points=[[0,0.5],[1,0.5]];portConstraint=eastwest;" vertex="1" parent="yYKGKoS039EIgSRdd9-Q-37">
          <mxGeometry y="52" width="140" height="26" as="geometry"/>
        </mxCell>
        <mxCell id="yYKGKoS039EIgSRdd9-Q-41" style="edgeStyle=orthogonalEdgeStyle;rounded=0;orthogonalLoop=1;jettySize=auto;html=1;" edge="1" parent="1" source="yYKGKoS039EIgSRdd9-Q-38" target="yYKGKoS039EIgSRdd9-Q-33">
          <mxGeometry relative="1" as="geometry"/>
        </mxCell>
        <mxCell id="yYKGKoS039EIgSRdd9-Q-42" value="IntervalNames" style="swimlane;fontStyle=0;childLayout=stackLayout;horizontal=1;startSize=26;fillColor=#e1d5e7;horizontalStack=0;resizeParent=1;resizeParentMax=0;resizeLast=0;collapsible=1;marginBottom=0;strokeColor=#9673a6;" vertex="1" parent="1">
          <mxGeometry x="436" y="665" width="140" height="104" as="geometry"/>
        </mxCell>
        <mxCell id="yYKGKoS039EIgSRdd9-Q-43" value="+ intervalNameID" style="text;strokeColor=none;fillColor=none;align=left;verticalAlign=top;spacingLeft=4;spacingRight=4;overflow=hidden;rotatable=0;points=[[0,0.5],[1,0.5]];portConstraint=eastwest;" vertex="1" parent="yYKGKoS039EIgSRdd9-Q-42">
          <mxGeometry y="26" width="140" height="26" as="geometry"/>
        </mxCell>
        <mxCell id="yYKGKoS039EIgSRdd9-Q-44" value="intervalName" style="text;strokeColor=none;fillColor=none;align=left;verticalAlign=top;spacingLeft=4;spacingRight=4;overflow=hidden;rotatable=0;points=[[0,0.5],[1,0.5]];portConstraint=eastwest;" vertex="1" parent="yYKGKoS039EIgSRdd9-Q-42">
          <mxGeometry y="52" width="140" height="26" as="geometry"/>
        </mxCell>
        <mxCell id="yYKGKoS039EIgSRdd9-Q-45" value="intervalNick" style="text;strokeColor=none;fillColor=none;align=left;verticalAlign=top;spacingLeft=4;spacingRight=4;overflow=hidden;rotatable=0;points=[[0,0.5],[1,0.5]];portConstraint=eastwest;" vertex="1" parent="yYKGKoS039EIgSRdd9-Q-42">
          <mxGeometry y="78" width="140" height="26" as="geometry"/>
        </mxCell>
        <mxCell id="yYKGKoS039EIgSRdd9-Q-46" style="edgeStyle=orthogonalEdgeStyle;rounded=0;orthogonalLoop=1;jettySize=auto;html=1;" edge="1" parent="1" source="yYKGKoS039EIgSRdd9-Q-43" target="yYKGKoS039EIgSRdd9-Q-34">
          <mxGeometry relative="1" as="geometry"/>
        </mxCell>
        <mxCell id="yYKGKoS039EIgSRdd9-Q-47" value="Partitionings" style="swimlane;fontStyle=0;childLayout=stackLayout;horizontal=1;startSize=26;fillColor=#f8cecc;horizontalStack=0;resizeParent=1;resizeParentMax=0;resizeLast=0;collapsible=1;marginBottom=0;strokeColor=#b85450;" vertex="1" parent="1">
          <mxGeometry x="436" y="511.5" width="140" height="130" as="geometry"/>
        </mxCell>
        <mxCell id="yYKGKoS039EIgSRdd9-Q-48" value="+ partitioningID" style="text;strokeColor=none;fillColor=none;align=left;verticalAlign=top;spacingLeft=4;spacingRight=4;overflow=hidden;rotatable=0;points=[[0,0.5],[1,0.5]];portConstraint=eastwest;" vertex="1" parent="yYKGKoS039EIgSRdd9-Q-47">
          <mxGeometry y="26" width="140" height="26" as="geometry"/>
        </mxCell>
        <mxCell id="yYKGKoS039EIgSRdd9-Q-49" value="intervalScoreID" style="text;strokeColor=none;fillColor=none;align=left;verticalAlign=top;spacingLeft=4;spacingRight=4;overflow=hidden;rotatable=0;points=[[0,0.5],[1,0.5]];portConstraint=eastwest;" vertex="1" parent="yYKGKoS039EIgSRdd9-Q-47">
          <mxGeometry y="52" width="140" height="26" as="geometry"/>
        </mxCell>
        <mxCell id="yYKGKoS039EIgSRdd9-Q-50" value="numInPartitioning" style="text;strokeColor=none;fillColor=none;align=left;verticalAlign=top;spacingLeft=4;spacingRight=4;overflow=hidden;rotatable=0;points=[[0,0.5],[1,0.5]];portConstraint=eastwest;" vertex="1" parent="yYKGKoS039EIgSRdd9-Q-47">
          <mxGeometry y="78" width="140" height="26" as="geometry"/>
        </mxCell>
        <mxCell id="yYKGKoS039EIgSRdd9-Q-51" value="partScaleID" style="text;strokeColor=none;fillColor=none;align=left;verticalAlign=top;spacingLeft=4;spacingRight=4;overflow=hidden;rotatable=0;points=[[0,0.5],[1,0.5]];portConstraint=eastwest;" vertex="1" parent="yYKGKoS039EIgSRdd9-Q-47">
          <mxGeometry y="104" width="140" height="26" as="geometry"/>
        </mxCell>
        <mxCell id="yYKGKoS039EIgSRdd9-Q-52" value="IntervalScores" style="swimlane;fontStyle=0;childLayout=stackLayout;horizontal=1;startSize=26;fillColor=#f8cecc;horizontalStack=0;resizeParent=1;resizeParentMax=0;resizeLast=0;collapsible=1;marginBottom=0;strokeColor=#b85450;" vertex="1" parent="1">
          <mxGeometry x="666" y="626" width="140" height="104" as="geometry"/>
        </mxCell>
        <mxCell id="yYKGKoS039EIgSRdd9-Q-53" value="+ intervalScoreID" style="text;strokeColor=none;fillColor=none;align=left;verticalAlign=top;spacingLeft=4;spacingRight=4;overflow=hidden;rotatable=0;points=[[0,0.5],[1,0.5]];portConstraint=eastwest;" vertex="1" parent="yYKGKoS039EIgSRdd9-Q-52">
          <mxGeometry y="26" width="140" height="26" as="geometry"/>
        </mxCell>
        <mxCell id="yYKGKoS039EIgSRdd9-Q-54" value="minScore" style="text;strokeColor=none;fillColor=none;align=left;verticalAlign=top;spacingLeft=4;spacingRight=4;overflow=hidden;rotatable=0;points=[[0,0.5],[1,0.5]];portConstraint=eastwest;" vertex="1" parent="yYKGKoS039EIgSRdd9-Q-52">
          <mxGeometry y="52" width="140" height="26" as="geometry"/>
        </mxCell>
        <mxCell id="yYKGKoS039EIgSRdd9-Q-55" value="maxScore" style="text;strokeColor=none;fillColor=none;align=left;verticalAlign=top;spacingLeft=4;spacingRight=4;overflow=hidden;rotatable=0;points=[[0,0.5],[1,0.5]];portConstraint=eastwest;" vertex="1" parent="yYKGKoS039EIgSRdd9-Q-52">
          <mxGeometry y="78" width="140" height="26" as="geometry"/>
        </mxCell>
        <mxCell id="yYKGKoS039EIgSRdd9-Q-56" style="edgeStyle=orthogonalEdgeStyle;rounded=0;orthogonalLoop=1;jettySize=auto;html=1;" edge="1" parent="1" source="yYKGKoS039EIgSRdd9-Q-53" target="yYKGKoS039EIgSRdd9-Q-49">
          <mxGeometry relative="1" as="geometry"/>
        </mxCell>
        <mxCell id="yYKGKoS039EIgSRdd9-Q-58" style="edgeStyle=orthogonalEdgeStyle;rounded=0;orthogonalLoop=1;jettySize=auto;html=1;" edge="1" parent="1" source="yYKGKoS039EIgSRdd9-Q-24" target="yYKGKoS039EIgSRdd9-Q-51">
          <mxGeometry relative="1" as="geometry"/>
        </mxCell>
        <mxCell id="yYKGKoS039EIgSRdd9-Q-59" value="Comments" style="swimlane;fontStyle=0;childLayout=stackLayout;horizontal=1;startSize=26;fillColor=#f8cecc;horizontalStack=0;resizeParent=1;resizeParentMax=0;resizeLast=0;collapsible=1;marginBottom=0;strokeColor=#b85450;" vertex="1" parent="1">
          <mxGeometry x="30" y="421" width="140" height="78" as="geometry"/>
        </mxCell>
        <mxCell id="yYKGKoS039EIgSRdd9-Q-60" value="+ commentID" style="text;strokeColor=none;fillColor=none;align=left;verticalAlign=top;spacingLeft=4;spacingRight=4;overflow=hidden;rotatable=0;points=[[0,0.5],[1,0.5]];portConstraint=eastwest;" vertex="1" parent="yYKGKoS039EIgSRdd9-Q-59">
          <mxGeometry y="26" width="140" height="26" as="geometry"/>
        </mxCell>
        <mxCell id="yYKGKoS039EIgSRdd9-Q-61" value="commentText" style="text;strokeColor=none;fillColor=none;align=left;verticalAlign=top;spacingLeft=4;spacingRight=4;overflow=hidden;rotatable=0;points=[[0,0.5],[1,0.5]];portConstraint=eastwest;" vertex="1" parent="yYKGKoS039EIgSRdd9-Q-59">
          <mxGeometry y="52" width="140" height="26" as="geometry"/>
        </mxCell>
        <mxCell id="yYKGKoS039EIgSRdd9-Q-62" style="edgeStyle=orthogonalEdgeStyle;rounded=0;orthogonalLoop=1;jettySize=auto;html=1;" edge="1" parent="1" source="yYKGKoS039EIgSRdd9-Q-60" target="yYKGKoS039EIgSRdd9-Q-24">
          <mxGeometry relative="1" as="geometry"/>
        </mxCell>
        <mxCell id="yYKGKoS039EIgSRdd9-Q-67" value="Positions" style="swimlane;fontStyle=0;childLayout=stackLayout;horizontal=1;startSize=26;fillColor=#dae8fc;horizontalStack=0;resizeParent=1;resizeParentMax=0;resizeLast=0;collapsible=1;marginBottom=0;strokeColor=#6c8ebf;" vertex="1" parent="1">
          <mxGeometry x="220" y="198.5" width="140" height="78" as="geometry"/>
        </mxCell>
        <mxCell id="yYKGKoS039EIgSRdd9-Q-68" value="+ positionID" style="text;strokeColor=none;fillColor=none;align=left;verticalAlign=top;spacingLeft=4;spacingRight=4;overflow=hidden;rotatable=0;points=[[0,0.5],[1,0.5]];portConstraint=eastwest;" vertex="1" parent="yYKGKoS039EIgSRdd9-Q-67">
          <mxGeometry y="26" width="140" height="26" as="geometry"/>
        </mxCell>
        <mxCell id="yYKGKoS039EIgSRdd9-Q-69" value="position" style="text;strokeColor=none;fillColor=none;align=left;verticalAlign=top;spacingLeft=4;spacingRight=4;overflow=hidden;rotatable=0;points=[[0,0.5],[1,0.5]];portConstraint=eastwest;" vertex="1" parent="yYKGKoS039EIgSRdd9-Q-67">
          <mxGeometry y="52" width="140" height="26" as="geometry"/>
        </mxCell>
        <mxCell id="yYKGKoS039EIgSRdd9-Q-70" style="edgeStyle=orthogonalEdgeStyle;rounded=0;orthogonalLoop=1;jettySize=auto;html=1;" edge="1" parent="1" source="yYKGKoS039EIgSRdd9-Q-68" target="z2BmbQ6l0MY7L84lB-eh-18">
          <mxGeometry relative="1" as="geometry"/>
        </mxCell>
      </root>
    </mxGraphModel>
  </diagram>
</mxfile>
